<?xml version="1.0" encoding="UTF-8"?>
<svg version="1.1" xmlns="http://www.w3.org/2000/svg" width="1000" height="250">
<path d="M0 0 C2 2 2 2 2.125 4.9375 C-0.06470929 16.63199136 -14.67695015 29.58670378 -24.078125 36.1484375 C-28.68366218 39.91854457 -30.42431979 45.89749814 -32.625 51.25 C-33.0890625 52.34441406 -33.553125 53.43882813 -34.03125 54.56640625 C-36.58250495 60.57735364 -36.58250495 60.57735364 -39.04541016 66.62475586 C-41.03715352 71.46077289 -43.04877717 74.61292038 -47.125 78.0625 C-48.42824219 79.19365234 -48.42824219 79.19365234 -49.7578125 80.34765625 C-52 82 -52 82 -54 82 C-53.49656013 74.97326485 -52.95812032 67.98059091 -52 61 C-52.639375 61.53625 -53.27875 62.0725 -53.9375 62.625 C-59.22949209 66.72899386 -64.4274323 70.47781067 -70.6875 72.9375 C-74.82806733 74.65133483 -76.94880268 76.8687627 -79.6484375 80.3828125 C-81.44714621 82.53502466 -83.50976444 83.75488222 -86 85 C-87.40742022 82.18515955 -86.66652164 80.43063887 -86.0625 77.375 C-85.86785156 76.37210937 -85.67320312 75.36921875 -85.47265625 74.3359375 C-85.31667969 73.56507813 -85.16070312 72.79421875 -85 72 C-86.1446875 71.690625 -86.1446875 71.690625 -87.3125 71.375 C-92.49898594 69.44105609 -97.19033084 66.7214854 -102 64 C-100.40200337 61.44852098 -99.34218022 59.80340605 -97 58 C-93.67456997 57.43961043 -90.416442 57.78923887 -87.0625 58 C-79.66380703 58.12914783 -75.15967143 57.25222856 -69.67236328 52.12475586 C-67.00185151 49.1819373 -64.51943242 46.07315383 -62 43 C-68.27 42.67 -74.54 42.34 -81 42 C-81 38.51751183 -80.60242188 38.0562199 -78.3203125 35.58203125 C-73.34700869 30.82272718 -67.38017762 29.44946969 -60.875 27.6875 C-58.55950331 27.02611227 -56.24438403 26.36340143 -53.9296875 25.69921875 C-52.91116699 25.41908936 -51.89264648 25.13895996 -50.84326172 24.8503418 C-46.05373578 23.41792562 -42.7945472 22.19271275 -39.36328125 18.48046875 C-38.70263672 17.78759766 -38.04199219 17.09472656 -37.36132812 16.38085938 C-36.01038268 14.93461368 -34.66391189 13.48417334 -33.32226562 12.02929688 C-28.4124247 6.9012408 -23.52913947 3.7763351 -17 1 C-16.01 1.99 -16.01 1.99 -15 3 C-16.32 4.65 -17.64 6.3 -19 8 C-16.28267972 6.49037762 -14.08160413 5.08160413 -11.875 2.875 C-8.39796883 -0.60203117 -4.68371548 -0.25547539 0 0 Z " fill="#369CCF" transform="translate(321,71)"/>
<path d="M0 0 C0.73427719 -0.00570007 1.46855438 -0.01140015 2.2250824 -0.01727295 C3.7861893 -0.02674241 5.34731637 -0.03326462 6.90844727 -0.03710938 C9.27461964 -0.04673677 11.63989405 -0.07770674 14.00585938 -0.109375 C15.52473444 -0.11591293 17.04361572 -0.12116029 18.5625 -0.125 C19.26178116 -0.1373468 19.96106232 -0.1496936 20.68153381 -0.16241455 C28.13359898 -0.12937384 34.6798346 2.24628304 40.203125 7.33984375 C43.91496248 11.8222399 45.90580399 17.46676377 46.18359375 23.265625 C45.2132023 31.99914808 42.48627649 38.36163329 35.74609375 44.203125 C28.72482928 49.12085274 20.05630187 49.25448599 11.74609375 49.203125 C11.08609375 48.873125 10.42609375 48.543125 9.74609375 48.203125 C9.75394897 49.2403772 9.75394897 49.2403772 9.76196289 50.29858398 C9.78266875 53.41258852 9.79573338 56.52657861 9.80859375 59.640625 C9.81697266 60.72923828 9.82535156 61.81785156 9.83398438 62.93945312 C9.83881836 64.49116211 9.83881836 64.49116211 9.84375 66.07421875 C9.85160522 67.51172485 9.85160522 67.51172485 9.85961914 68.97827148 C9.74609375 71.203125 9.74609375 71.203125 8.74609375 72.203125 C6.04954521 72.27632121 3.37917917 72.29555037 0.68359375 72.265625 C-0.07501953 72.26111328 -0.83363281 72.25660156 -1.61523438 72.25195312 C-3.49482496 72.2401318 -5.37437524 72.22219578 -7.25390625 72.203125 C-8.68987372 69.33119007 -8.38120484 66.86754838 -8.38330078 63.65795898 C-8.3850531 62.98627686 -8.38680542 62.31459473 -8.38861084 61.62255859 C-8.39301916 59.39808585 -8.39009529 57.17369233 -8.38671875 54.94921875 C-8.387392 53.40747563 -8.38836221 51.86573262 -8.38961792 50.32398987 C-8.39109344 47.09171539 -8.3889447 43.85946853 -8.38427734 40.62719727 C-8.37857536 36.47513606 -8.38186294 32.32313943 -8.38784981 28.17108059 C-8.39145527 24.98760996 -8.39031699 21.80415475 -8.38772202 18.62068367 C-8.38705295 17.08920344 -8.38788046 15.55772183 -8.39020157 14.02624321 C-8.39272837 11.89042294 -8.38888737 9.7547088 -8.38330078 7.61889648 C-8.38250519 6.40137192 -8.38170959 5.18384735 -8.38088989 3.9294281 C-8.13357232 -1.38041066 -4.33430983 0.02581858 0 0 Z M9.74609375 13.203125 C8.78766015 16.07842581 8.67952988 17.49362431 8.8671875 20.43359375 C8.91552734 21.23603516 8.96386719 22.03847656 9.01367188 22.86523438 C9.06974609 23.69861328 9.12582031 24.53199219 9.18359375 25.390625 C9.23580078 26.23560547 9.28800781 27.08058594 9.34179688 27.95117188 C9.47133064 30.03548799 9.60802552 32.11935682 9.74609375 34.203125 C13.95540298 35.60622808 17.46229055 35.25344452 21.74609375 34.203125 C25.01586981 32.51679312 25.01586981 32.51679312 26.74609375 29.203125 C27.569885 24.23831166 27.84399121 19.84997118 24.99609375 15.578125 C21.3706828 13.36259609 18.19638533 13.07885601 13.99609375 13.140625 C12.79726563 13.15416016 12.79726563 13.15416016 11.57421875 13.16796875 C10.66929687 13.18537109 10.66929687 13.18537109 9.74609375 13.203125 Z " fill="#E97549" transform="translate(586.25390625,84.796875)"/>
<path d="M0 0 C0.70253906 0.00386719 1.40507812 0.00773437 2.12890625 0.01171875 C2.83144531 0.00785156 3.53398437 0.00398438 4.2578125 0 C9.50229247 0.01010497 9.50229247 0.01010497 10.62890625 1.13671875 C10.75088433 2.51722733 10.80659524 3.90369522 10.83422852 5.28930664 C10.85417374 6.1701442 10.87411896 7.05098175 10.89466858 7.95851135 C10.91138107 8.91579636 10.92809357 9.87308136 10.9453125 10.859375 C10.9660936 11.83458603 10.98687469 12.80979706 11.00828552 13.81455994 C11.07389037 16.94270505 11.13271653 20.07093697 11.19140625 23.19921875 C11.23458108 25.31446225 11.27819502 27.42969684 11.32226562 29.54492188 C11.4295828 34.74209462 11.53132845 39.93935452 11.62890625 45.13671875 C12.75344836 43.41455095 13.87208533 41.68852644 14.98828125 39.9609375 C15.61186523 39.00018311 16.23544922 38.03942871 16.87792969 37.04956055 C18.47109126 34.39925231 19.6935931 31.79790765 20.87890625 28.94921875 C22.27734375 26.75390625 22.27734375 26.75390625 24.62890625 25.13671875 C30.8884871 24.01986408 37.33201949 24.6317209 43.62890625 25.13671875 C42.14406987 29.63317242 39.62139496 32.99220177 36.69140625 36.63671875 C31.06533557 42.7111852 31.06533557 42.7111852 28.71875 50.1015625 C29.94678632 52.84751495 31.49869402 55.2114949 33.19140625 57.69921875 C33.90425781 58.74980469 34.61710938 59.80039063 35.3515625 60.8828125 C38.20984401 64.96677219 41.16013754 68.97623719 44.16015625 72.95703125 C45.62890625 75.13671875 45.62890625 75.13671875 45.62890625 77.13671875 C38.98602497 78.32886095 32.11594561 79.51275688 25.62890625 77.13671875 C20.14642873 72.30073692 16.82324009 65.56163375 13.6184082 59.08618164 C12.77987242 57.18418854 12.77987242 57.18418854 11.62890625 56.13671875 C11.29890625 63.06671875 10.96890625 69.99671875 10.62890625 77.13671875 C8.00953125 77.15734375 5.39015625 77.17796875 2.69140625 77.19921875 C1.86519775 77.20832275 1.03898926 77.21742676 0.18774414 77.22680664 C-1.66543134 77.2339582 -3.51858683 77.18700395 -5.37109375 77.13671875 C-7.02998114 75.47783136 -6.496719 73.47987093 -6.50662231 71.2638092 C-6.50459808 70.56767014 -6.50257385 69.87153107 -6.50048828 69.15429688 C-6.5022406 68.42423935 -6.50399292 67.69418182 -6.50579834 66.94200134 C-6.51021674 64.51729997 -6.50727892 62.09267093 -6.50390625 59.66796875 C-6.50457929 57.99027492 -6.50554932 56.31258119 -6.50680542 54.6348877 C-6.50828238 51.11416701 -6.50612791 47.59347165 -6.50146484 44.07275391 C-6.49576755 39.54961379 -6.49904657 35.02653301 -6.50503731 30.50339508 C-6.50864298 27.0376948 -6.50750431 23.57200868 -6.50490952 20.10630798 C-6.50424026 18.4380645 -6.50506861 16.76981976 -6.50738907 15.10157776 C-6.5099157 12.77406381 -6.50607488 10.44664727 -6.50048828 8.11914062 C-6.50251251 7.42300156 -6.50453674 6.72686249 -6.50662231 6.0096283 C-6.47999309 0.05081692 -5.93271647 0.01143105 0 0 Z " fill="#39A6DA" transform="translate(501.37109375,79.86328125)"/>
<path d="M0 0 C3.54302801 3.20830344 5.39985644 5.29862261 6.62890625 9.984375 C6.66447476 11.37975508 6.66118557 12.77641495 6.62890625 14.171875 C6.68111328 15.47511719 6.68111328 15.47511719 6.734375 16.8046875 C6.95500479 24.3481251 6.8661512 31.71260479 2.12890625 37.921875 C-2.90525732 43.2536246 -10.30603805 46.70979974 -17.59765625 47.375 C-26.52277488 47.54943229 -34.29626438 46.09956453 -40.90625 39.76953125 C-46.96168203 33.16507338 -48.82312335 26.25544165 -48.55078125 17.46484375 C-47.92836851 9.52231591 -46.09580938 4.79462369 -40.37109375 -0.828125 C-39.901875 -1.3540625 -39.43265625 -1.88 -38.94921875 -2.421875 C-28.08445231 -12.10335004 -10.2582593 -7.90916862 0 0 Z M-29.37109375 10.171875 C-31.23618361 15.76714457 -31.38070481 22.62859033 -29.7578125 28.32421875 C-28.47234644 30.6403228 -26.98744075 31.94926951 -24.5 32.84765625 C-20.93407035 33.51500414 -18.85685213 33.38307429 -15.49609375 31.921875 C-12.43067426 29.39741189 -11.43770271 27.77556253 -11 23.80859375 C-10.53403466 15.6327512 -10.53403466 15.6327512 -13.37109375 8.234375 C-16.70610272 5.94155634 -18.473896 5.39983321 -22.4375 5.70703125 C-25.49523123 6.44212219 -27.24387772 7.91573679 -29.37109375 10.171875 Z " fill="#F39746" transform="translate(734.37109375,110.828125)"/>
<path d="M0 0 C18.81 0 37.62 0 57 0 C58 10 58 10 56 15 C50.06 15.33 44.12 15.66 38 16 C38.00523682 17.66087646 38.01047363 19.32175293 38.01586914 21.03295898 C38.03391058 27.16983506 38.04542886 33.30670877 38.05493164 39.44360352 C38.05997383 42.10441481 38.06680736 44.76522332 38.07543945 47.42602539 C38.08751009 51.24105516 38.09322929 55.05604844 38.09765625 58.87109375 C38.10281754 60.06899033 38.10797882 61.2668869 38.11329651 62.50108337 C38.11337204 63.6021492 38.11344757 64.70321503 38.11352539 65.83764648 C38.115746 66.81249496 38.11796661 67.78734344 38.12025452 68.79173279 C38 71 38 71 37 72 C31.39 72 25.78 72 20 72 C20 53.19 20 34.38 20 15 C13.73 15 7.46 15 1 15 C0.67 14.67 0.34 14.34 0 14 C0 9.38 0 4.76 0 0 Z " fill="#36A4DA" transform="translate(348,85)"/>
<path d="M0 0 C4.68895412 4.07587053 7.6798641 8.23467481 8.61328125 14.40234375 C8.69508817 17.12660206 8.72993691 19.82365681 8.7109375 22.546875 C8.70952255 23.31666183 8.7081076 24.08644867 8.70664978 24.87956238 C8.70107731 27.32469663 8.68852996 29.76973743 8.67578125 32.21484375 C8.67076269 33.87825388 8.6662004 35.54166545 8.66210938 37.20507812 C8.65197017 41.27089782 8.63238957 45.33651686 8.61328125 49.40234375 C3.66328125 49.40234375 -1.28671875 49.40234375 -6.38671875 49.40234375 C-6.88171875 46.92734375 -6.88171875 46.92734375 -7.38671875 44.40234375 C-8.00933594 44.94375 -8.00933594 44.94375 -8.64453125 45.49609375 C-14.24877943 49.71686644 -19.2445166 50.1566341 -26.1640625 49.8828125 C-30.9215383 49.17351611 -32.41391005 48.17861426 -35.38671875 44.40234375 C-38.04704578 39.6137551 -39.05615794 35.85349141 -38.38671875 30.40234375 C-36.40828524 24.45586563 -33.93303067 21.52418089 -28.38671875 18.40234375 C-24.6953125 17.35546875 -24.6953125 17.35546875 -20.82421875 16.65234375 C-19.54417969 16.41 -18.26414062 16.16765625 -16.9453125 15.91796875 C-14.01209436 15.492958 -11.3388901 15.28901663 -8.38671875 15.40234375 C-9.04671875 13.75234375 -9.70671875 12.10234375 -10.38671875 10.40234375 C-17.85260008 10.09921774 -23.70388202 9.91564632 -30.38671875 13.40234375 C-31.37671875 13.40234375 -32.36671875 13.40234375 -33.38671875 13.40234375 C-33.38671875 9.44234375 -33.38671875 5.48234375 -33.38671875 1.40234375 C-23.63045804 -2.91292541 -9.75044223 -6.07510924 0 0 Z M-22.38671875 29.40234375 C-23.78887998 31.25694654 -23.78887998 31.25694654 -23.38671875 33.40234375 C-22.05825915 35.89955199 -22.05825915 35.89955199 -19.38671875 37.40234375 C-16.51324527 37.70238516 -14.09688514 37.40568194 -11.38671875 36.40234375 C-9.10140898 33.67471596 -7.89101301 30.93240355 -7.38671875 27.40234375 C-8.52122855 26.05167847 -8.52122855 26.05167847 -11.51171875 26.15234375 C-16.03569759 26.44421335 -18.45137873 27.19855334 -22.38671875 29.40234375 Z " fill="#34A6DB" transform="translate(436.38671875,107.59765625)"/>
<path d="M0 0 C0 4.62 0 9.24 0 14 C2.6915625 13.9690625 2.6915625 13.9690625 5.4375 13.9375 C7.29166122 13.9161878 9.14712498 13.92773498 11 14 C12 15 12 15 12.09765625 17.72265625 C12.06510417 20.81510417 12.03255208 23.90755208 12 27 C8.04 27 4.08 27 0 27 C0.14010035 30.97944615 0.28679559 34.95845381 0.4375 38.9375 C0.47681641 40.07380859 0.51613281 41.21011719 0.55664062 42.38085938 C0.59853516 43.46044922 0.64042969 44.54003906 0.68359375 45.65234375 C0.72025146 46.65257568 0.75690918 47.65280762 0.79467773 48.68334961 C0.74671841 50.96069188 0.74671841 50.96069188 2 52 C3.49496842 52.20699563 4.9966592 52.36679259 6.5 52.5 C10.88888889 52.88888889 10.88888889 52.88888889 12 54 C12.07226502 55.85287502 12.0838122 57.70833878 12.0625 59.5625 C12.05347656 60.57441406 12.04445313 61.58632812 12.03515625 62.62890625 C12.02355469 63.41136719 12.01195312 64.19382812 12 65 C5.60309845 68.19845078 0.93736173 68.92643805 -6.1875 67.25 C-9.28104 65.87509333 -11.5373352 64.31780216 -14 62 C-14 61.34 -14 60.68 -14 60 C-14.66 60 -15.32 60 -16 60 C-16.74016884 55.95936297 -17.1683286 52.04917891 -17.31640625 47.9453125 C-17.35830078 46.83671875 -17.40019531 45.728125 -17.44335938 44.5859375 C-17.48267578 43.44382813 -17.52199219 42.30171875 -17.5625 41.125 C-17.60568359 39.9596875 -17.64886719 38.794375 -17.69335938 37.59375 C-17.79901629 34.72927375 -17.90111799 31.86471679 -18 29 C-20.31 28.34 -22.62 27.68 -25 27 C-25 22.71 -25 18.42 -25 14 C-22.36 14 -19.72 14 -17 14 C-17.03480469 13.30132812 -17.06960938 12.60265625 -17.10546875 11.8828125 C-17.13253906 10.97273438 -17.15960937 10.06265625 -17.1875 9.125 C-17.22230469 8.22007813 -17.25710938 7.31515625 -17.29296875 6.3828125 C-17.19628906 5.59648438 -17.09960938 4.81015625 -17 4 C-14.05276949 2.03517966 -11.88022174 1.2438783 -8.5 0.3125 C-7.5409375 0.04050781 -6.581875 -0.23148437 -5.59375 -0.51171875 C-3 -1 -3 -1 0 0 Z " fill="#F3974A" transform="translate(768,90)"/>
<path d="M0 0 C0.69289369 3.72430357 1.11144596 7.21083746 1 11 C-2.01031744 11.93423645 -2.86650268 12.04449911 -6 11 C-8.22818441 10.93062938 -10.45834524 10.91542916 -12.6875 10.9375 C-13.86699219 10.94652344 -15.04648437 10.95554687 -16.26171875 10.96484375 C-17.16535156 10.97644531 -18.06898438 10.98804687 -19 11 C-19 12.32 -19 13.64 -19 15 C-17.46279297 15.58007812 -17.46279297 15.58007812 -15.89453125 16.171875 C-14.53367301 16.69744784 -13.17300593 17.22351584 -11.8125 17.75 C-11.13896484 18.00265625 -10.46542969 18.2553125 -9.77148438 18.515625 C-4.31194552 20.64617675 -0.32749016 23.00876476 3 28 C3.81320916 33.4087865 3.67036858 38.86661078 0.48046875 43.4609375 C-4.80372024 48.95426326 -10.75745361 50.26961645 -18.14819336 50.48266602 C-18.98616455 50.48838623 -19.82413574 50.49410645 -20.6875 50.5 C-21.89901733 50.50954712 -21.89901733 50.50954712 -23.13500977 50.51928711 C-28.43957997 50.40649347 -32.30608799 49.50998178 -37 47 C-38.16343227 44.67313547 -38.19895988 43.15278587 -38.25 40.5625 C-38.27578125 39.78003906 -38.3015625 38.99757812 -38.328125 38.19140625 C-37.92823089 35.52068491 -37.05300878 34.68022561 -35 33 C-34.0925 33.474375 -33.185 33.94875 -32.25 34.4375 C-27.68409222 36.63264797 -24.31124875 37.12275296 -19.25 37.0625 C-17.77273438 37.04896484 -17.77273438 37.04896484 -16.265625 37.03515625 C-15.14414062 37.01775391 -15.14414062 37.01775391 -14 37 C-14.31268865 35.04467036 -14.31268865 35.04467036 -15 33 C-18.3648549 30.89696569 -21.79345219 29.75130978 -25.5625 28.625 C-31.05472494 26.86822771 -33.83650454 23.74524319 -37 19 C-37.79834578 13.64688145 -37.74101437 9.31470291 -35.0625 4.5625 C-25.02736237 -3.83424781 -12.00769407 -4.86798408 0 0 Z " fill="#36A6DC" transform="translate(487,107)"/>
<path d="M0 0 C0 25.41 0 50.82 0 77 C-5.61 77 -11.22 77 -17 77 C-17 51.59 -17 26.18 -17 0 C-3 -1 -3 -1 0 0 Z " fill="#F08D44" transform="translate(680,80)"/>
<path d="M0 0 C1.48831242 0.00667405 2.97660807 0.01863442 4.46484375 0.03515625 C5.22345703 0.03966797 5.98207031 0.04417969 6.76367188 0.04882812 C8.64326246 0.06064945 10.52281274 0.07858547 12.40234375 0.09765625 C13.22494787 6.55432258 13.54993497 12.84266512 13.53515625 19.34765625 C13.53659134 20.75664185 13.53659134 20.75664185 13.53805542 22.1940918 C13.53873109 24.16048246 13.53691998 26.12687544 13.53271484 28.09326172 C13.52730933 31.11691183 13.53270517 34.14041665 13.5390625 37.1640625 C13.53840255 39.07942741 13.53712313 40.99479223 13.53515625 42.91015625 C13.53718048 43.81733398 13.53920471 44.72451172 13.54129028 45.65917969 C13.51732605 51.98267395 13.51732605 51.98267395 12.40234375 53.09765625 C9.72502995 53.19746839 7.079302 53.236455 4.40234375 53.22265625 C3.27699219 53.22845703 3.27699219 53.22845703 2.12890625 53.234375 C-3.47104572 53.22426678 -3.47104572 53.22426678 -4.59765625 52.09765625 C-4.69620047 50.50702315 -4.72564319 48.91204148 -4.72705078 47.31835938 C-4.73020294 46.30060425 -4.7333551 45.28284912 -4.73660278 44.23425293 C-4.73457855 43.12698853 -4.73255432 42.01972412 -4.73046875 40.87890625 C-4.73142548 39.75069458 -4.7323822 38.62248291 -4.73336792 37.46008301 C-4.73404993 35.06925399 -4.73219422 32.67842314 -4.72802734 30.28759766 C-4.72267941 26.61356474 -4.72797168 22.93965408 -4.734375 19.265625 C-4.73371422 16.94921848 -4.73243307 14.63281203 -4.73046875 12.31640625 C-4.7335051 10.65550964 -4.7335051 10.65550964 -4.73660278 8.96105957 C-4.73345062 7.94330444 -4.73029846 6.92554932 -4.72705078 5.87695312 C-4.72625519 4.97618042 -4.72545959 4.07540771 -4.72463989 3.14733887 C-4.5019992 -0.44637409 -3.74954031 0.10177905 0 0 Z " fill="#EC8646" transform="translate(640.59765625,103.90234375)"/>
<path d="M0 0 C0.33 0.99 0.66 1.98 1 3 C1.99 3 2.98 3 4 3 C6.81870287 5.81870287 6.7303841 8.09056945 7 12 C6.67257812 12.59425781 6.34515625 13.18851563 6.0078125 13.80078125 C3.52418019 19.22049051 5.22281393 26.77047679 6.578125 32.40234375 C7.39437148 34.58922936 7.39437148 34.58922936 10 37 C13.63848844 38.14816854 17.20495235 38.67938391 21 39 C20.875 42.3125 20.875 42.3125 20 46 C14.42992156 49.66911277 9.78007515 49.32595302 3.35546875 48.703125 C-1.46525697 47.69296129 -3.98315614 45.79997737 -7 42 C-7.763125 41.05125 -8.52625 40.1025 -9.3125 39.125 C-13.85770396 30.70795563 -14.06755378 21.34004146 -11.83203125 12.140625 C-10.37878366 8.40175327 -7.82618715 5.77584794 -5 3 C-4.48308594 2.44054687 -3.96617187 1.88109375 -3.43359375 1.3046875 C-2 0 -2 0 0 0 Z " fill="#EF8B43" transform="translate(699,107)"/>
<path d="M0 0 C5.39842381 0.33740149 9.22557561 3.36770874 13 7 C17.82307045 13.55937581 18.57685114 21.10517064 17.5625 29 C16.22987508 35.02989147 12.34070068 38.82081377 8 43 C6 42 6 42 5 39 C2.49552484 37.78130071 2.49552484 37.78130071 0 37 C0.33 35.68 0.66 34.36 1 33 C-0.98 33 -2.96 33 -5 33 C-4.505 32.401875 -4.01 31.80375 -3.5 31.1875 C-1.34793443 26.61436067 -1.21328495 21.98252865 -2 17 C-3.71925095 14.26013365 -4.95452189 14.01059079 -8.13671875 13.26953125 C-9.30847656 13.11871094 -10.48023438 12.96789062 -11.6875 12.8125 C-13.45673828 12.57466797 -13.45673828 12.57466797 -15.26171875 12.33203125 C-16.16535156 12.22246094 -17.06898438 12.11289063 -18 12 C-18 11.67 -18 11.34 -18 11 C-16.04200486 10.66468585 -14.08359226 10.33180857 -12.125 10 C-10.48917969 9.7215625 -10.48917969 9.7215625 -8.8203125 9.4375 C-6 9 -6 9 -4 9 C-4 9.66 -4 10.32 -4 11 C-3.34 11.33 -2.68 11.66 -2 12 C-0.0927448 15.17875866 1.05227568 18.72386587 2.31640625 22.1953125 C2.98817249 24.06083307 2.98817249 24.06083307 4 26 C4.66 26 5.32 26 6 26 C6 24.35 6 22.7 6 21 C6.66 20.67 7.32 20.34 8 20 C8 20.66 8 21.32 8 22 C8.66 22 9.32 22 10 22 C10 20.68 10 19.36 10 18 C11.32 17.67 12.64 17.34 14 17 C13.484375 16.62875 12.96875 16.2575 12.4375 15.875 C11 14 11 14 11.3125 10.8125 C11.539375 9.884375 11.76625 8.95625 12 8 C9.36 8.66 6.72 9.32 4 10 C4 9.01 4 8.02 4 7 C3.525625 6.525625 3.05125 6.05125 2.5625 5.5625 C0.74896408 3.74896408 0.42906705 2.48858887 0 0 Z " fill="#EA864A" transform="translate(614,86)"/>
<path d="M0 0 C0.495 1.485 0.495 1.485 1 3 C-1.29087625 7.23812107 -4.19695039 11.08649269 -7 15 C-7.56332031 15.804375 -8.12664062 16.60875 -8.70703125 17.4375 C-16.02745151 27.41179525 -27.76736243 39.79425179 -40.4375 42.1875 C-44 42 -44 42 -46.5625 40.5625 C-48.64163175 36.85622166 -48.08787254 33.92642739 -47 30 C-44.48284619 22.2585647 -38.52072897 16.73144382 -33 11 C-32.34 11.33 -31.68 11.66 -31 12 C-32.10210905 13.75129657 -33.20677432 15.50098464 -34.3125 17.25 C-35.23482422 18.71179688 -35.23482422 18.71179688 -36.17578125 20.203125 C-38 23 -38 23 -39.71875 25.15625 C-41.53454235 27.76921948 -41.21122518 29.90203067 -41 33 C-32.06717696 33.58597236 -25.89091226 27.78994955 -19.40258789 22.1809082 C-13.77113269 17.13626917 -9.19786023 11.69902006 -4.83984375 5.53125 C-3.33544176 3.46149949 -1.87325905 1.7273666 0 0 Z " fill="#2C88BD" transform="translate(291,132)"/>
<path d="M0 0 C2 2 2 2 2.125 4.9375 C0.42983582 13.99079441 -8.10215965 21.37615243 -14.3125 27.6875 C-14.92311279 28.31213135 -15.53372559 28.9367627 -16.1628418 29.58032227 C-16.74461182 30.15580811 -17.32638184 30.73129395 -17.92578125 31.32421875 C-18.44567627 31.84072998 -18.96557129 32.35724121 -19.5012207 32.8894043 C-21 34 -21 34 -24 34 C-24 33.01 -24 32.02 -24 31 C-24.99 31 -25.98 31 -27 31 C-27 29 -27 29 -25.4375 27.375 C-22.19319567 25.54487961 -19.66275561 25.78868718 -16 26 C-15.67 24.68 -15.34 23.36 -15 22 C-15.66 22 -16.32 22 -17 22 C-17 20.68 -17 19.36 -17 18 C-16.34 18 -15.68 18 -15 18 C-15 18.99 -15 19.98 -15 21 C-13.68 20.67 -12.36 20.34 -11 20 C-11 19.01 -11 18.02 -11 17 C-10.34 17 -9.68 17 -9 17 C-8.83318891 14.08347826 -8.83318891 14.08347826 -9 11 C-9.66 10.34 -10.32 9.68 -11 9 C-13.39388923 9.27802838 -13.39388923 9.27802838 -16 10 C-18.6875 10.6875 -18.6875 10.6875 -21 11 C-21.66 10.34 -22.32 9.68 -23 9 C-21.948125 8.773125 -20.89625 8.54625 -19.8125 8.3125 C-15.81144068 7.19123539 -13.81592884 5.0442474 -11 2 C-7.4795614 -0.46430702 -4.21405639 -0.31215232 0 0 Z " fill="#46BBE3" transform="translate(321,71)"/>
<path d="M0 0 C0.66 0.33 1.32 0.66 2 1 C1.175 1.70125 0.35 2.4025 -0.5 3.125 C-3.46074997 6.52986246 -3.19233012 7.67257231 -3 12 C-6 14 -6 14 -9 14 C-9.2475 14.804375 -9.495 15.60875 -9.75 16.4375 C-11 19 -11 19 -12.875 19.9375 C-15 20 -15 20 -16.7734375 19.01171875 C-19.57263793 17.73980136 -21.6897821 17.80213767 -24.75 17.875 C-25.73484375 17.89304688 -26.7196875 17.91109375 -27.734375 17.9296875 C-28.85585937 17.96449219 -28.85585937 17.96449219 -30 18 C-30.33 18.99 -30.66 19.98 -31 21 C-30.34 21.33 -29.68 21.66 -29 22 C-29 22.66 -29 23.32 -29 24 C-27.88625 23.79375 -26.7725 23.5875 -25.625 23.375 C-24.42875 23.25125 -23.2325 23.1275 -22 23 C-20 25 -20 25 -19.875 28.125 C-19.91625 29.07375 -19.9575 30.0225 -20 31 C-18.02 31.33 -16.04 31.66 -14 32 C-15.4258086 35.45195767 -17.09746334 37.1014256 -20.125 39.25 C-21.21167969 40.03117187 -21.21167969 40.03117187 -22.3203125 40.828125 C-22.87460938 41.21484375 -23.42890625 41.6015625 -24 42 C-25.40742022 39.18515955 -24.66652164 37.43063887 -24.0625 34.375 C-23.86785156 33.37210938 -23.67320312 32.36921875 -23.47265625 31.3359375 C-23.31667969 30.56507813 -23.16070312 29.79421875 -23 29 C-23.763125 28.79375 -24.52625 28.5875 -25.3125 28.375 C-30.49898594 26.44105609 -35.19033084 23.7214854 -40 21 C-38.40200337 18.44852098 -37.34218022 16.80340605 -35 15 C-31.67456997 14.43961043 -28.416442 14.78923887 -25.0625 15 C-17.5586856 15.13098278 -13.02356786 14.21996107 -7.52709961 8.93554688 C-4.87011397 6.04971138 -2.38967803 3.11260584 0 0 Z " fill="#2A7DB5" transform="translate(259,114)"/>
<path d="M0 0 C2.18616019 2.05058436 3.21744864 4.12279989 4 7 C3.93779144 10.23484526 3.74064582 12.07307053 1.7109375 14.61328125 C-1.41147444 17.14400325 -5.08877348 17.23987079 -9 17 C-14.39759036 14.20481928 -14.39759036 14.20481928 -16 11 C-16.42576871 7.16808162 -16.30321315 5.47050317 -14.1875 2.1875 C-10.13825444 -1.86174556 -5.23018282 -1.68685175 0 0 Z " fill="#E78A4C" transform="translate(651,80)"/>
<path d="M0 0 C4.62 0 9.24 0 14 0 C14 0.33 14 0.66 14 1 C10.04 1 6.08 1 2 1 C2.33 23.77 2.66 46.54 3 70 C7.455 69.505 7.455 69.505 12 69 C12.66 69.99 13.32 70.98 14 72 C14.99 72 15.98 72 17 72 C17 73.65 17 75.3 17 77 C11.39 77 5.78 77 0 77 C0 51.59 0 26.18 0 0 Z " fill="#DB8A55" transform="translate(663,80)"/>
<path d="M0 0 C-2.39904859 1.1995243 -4.32520673 1.73904456 -7 2 C-8.02196992 1.02246356 -9.01979625 0.0194119 -10 -1 C-12.96655046 -1.91115 -12.96655046 -1.91115 -16 -2 C-18.7194239 -0.18705073 -20.74259377 1.66475218 -23 4 C-23.33 2.68 -23.66 1.36 -24 0 C-24.66 0 -25.32 0 -26 0 C-25.67 1.98 -25.34 3.96 -25 6 C-22.69 6 -20.38 6 -18 6 C-18 5.01 -18 4.02 -18 3 C-17.01 3 -16.02 3 -15 3 C-15 3.66 -15 4.32 -15 5 C-12.03 5.495 -12.03 5.495 -9 6 C-9.66 7.32 -10.32 8.64 -11 10 C-11.33 9.67 -11.66 9.34 -12 9 C-19.40340533 8.44206221 -25.3957117 8.55428436 -32 12 C-32.99 12 -33.98 12 -35 12 C-35 8.04 -35 4.08 -35 0 C-23.89455555 -4.91202351 -10.66130629 -7.10753753 0 0 Z " fill="#3CA2D3" transform="translate(438,109)"/>
<path d="M0 0 C0.99 0.66 1.98 1.32 3 2 C-0.17320782 5.53586014 -2.16743695 7.58578031 -7 8 C-7.0825 8.94875 -7.165 9.8975 -7.25 10.875 C-8 14 -8 14 -9.9375 15.375 C-12 16 -12 16 -14 16 C-14.66 17.98 -15.32 19.96 -16 22 C-16.33 21.34 -16.66 20.68 -17 20 C-21.89562693 21.87702327 -21.89562693 21.87702327 -26 25 C-30.8567054 27.48304533 -34.59961359 28.48510626 -40 27 C-36.97930211 24.98620141 -35.32971212 24.58641636 -31.8515625 23.8984375 C-25.23505233 22.16320926 -21.82493433 18.63329111 -17.375 13.625 C-12.0480896 7.75738817 -7.21470947 3.40642013 0 0 Z " fill="#3FAEDD" transform="translate(303,72)"/>
<path d="M0 0 C0.33 0 0.66 0 1 0 C1 1.98 1 3.96 1 6 C1.721875 5.484375 2.44375 4.96875 3.1875 4.4375 C6.4195366 2.78557018 7.61608307 2.93648325 11 4 C11 3.01 11 2.02 11 1 C11.66 1 12.32 1 13 1 C11.75759202 9.462779 7.7423661 13.77219393 1.49609375 19.1640625 C-1 21 -1 21 -3 21 C-2.58169634 13.77875787 -2.04538889 6.95432222 0 0 Z " fill="#338DC2" transform="translate(270,132)"/>
<path d="M0 0 C1.98 0 3.96 0 6 0 C2.88974659 6.17990299 -1.15113412 10.6057062 -6.0625 15.4375 C-6.78244141 16.16904297 -7.50238281 16.90058594 -8.24414062 17.65429688 C-8.93830078 18.34458984 -9.63246094 19.03488281 -10.34765625 19.74609375 C-11.29137085 20.68473267 -11.29137085 20.68473267 -12.25415039 21.64233398 C-14 23 -14 23 -17 23 C-17 22.01 -17 21.02 -17 20 C-17.99 20 -18.98 20 -20 20 C-20 18 -20 18 -18.4375 16.375 C-15.19319567 14.54487961 -12.66275561 14.78868718 -9 15 C-8.67 13.68 -8.34 12.36 -8 11 C-8.66 11 -9.32 11 -10 11 C-10 9.68 -10 8.36 -10 7 C-9.34 7 -8.68 7 -8 7 C-8 7.99 -8 8.98 -8 10 C-6.68 9.67 -5.36 9.34 -4 9 C-4 8.01 -4 7.02 -4 6 C-3.34 6 -2.68 6 -2 6 C-2 5.34 -2 4.68 -2 4 C-1.01 4 -0.02 4 1 4 C0.67 2.68 0.34 1.36 0 0 Z " fill="#4DB0D8" transform="translate(314,82)"/>
<path d="M0 0 C3.63 1.32 7.26 2.64 11 4 C11 4.33 11 4.66 11 5 C9.93458984 5.07347656 9.93458984 5.07347656 8.84765625 5.1484375 C7.92855469 5.22320312 7.00945312 5.29796875 6.0625 5.375 C5.14597656 5.44460937 4.22945313 5.51421875 3.28515625 5.5859375 C2.53105469 5.72257813 1.77695312 5.85921875 1 6 C0.67 6.66 0.34 7.32 0 8 C1.32 8.33 2.64 8.66 4 9 C4 9.99 4 10.98 4 12 C4.99 12.33 5.98 12.66 7 13 C7.66 13.33 8.32 13.66 9 14 C9.33 13.34 9.66 12.68 10 12 C10 12.66 10 13.32 10 14 C11.24716797 14.07347656 11.24716797 14.07347656 12.51953125 14.1484375 C13.60621094 14.22320312 14.69289063 14.29796875 15.8125 14.375 C16.89144531 14.44460937 17.97039062 14.51421875 19.08203125 14.5859375 C22 15 22 15 25 17 C21.97861433 17.08149592 18.95946095 17.14073421 15.9375 17.1875 C15.08994141 17.21263672 14.24238281 17.23777344 13.36914062 17.26367188 C7.7921559 17.32827015 3.91805702 16.69742038 -1 14 C-2.16983345 11.6603331 -2.1661241 10.16608473 -2.1875 7.5625 C-2.20167969 6.78003906 -2.21585937 5.99757812 -2.23046875 5.19140625 C-2 3 -2 3 0 0 Z " fill="#3CA1CD" transform="translate(451,140)"/>
<path d="M0 0 C0.99 0.66 1.98 1.32 3 2 C3.1875 5.125 3.1875 5.125 3 8 C5.97 8.495 5.97 8.495 9 9 C7.5741914 12.45195767 5.90253666 14.1014256 2.875 16.25 C2.15054688 16.77078125 1.42609375 17.2915625 0.6796875 17.828125 C0.12539062 18.21484375 -0.42890625 18.6015625 -1 19 C-2.40742022 16.18515955 -1.66652164 14.43063887 -1.0625 11.375 C-0.77052734 9.87066406 -0.77052734 9.87066406 -0.47265625 8.3359375 C-0.31667969 7.56507813 -0.16070312 6.79421875 0 6 C-0.928125 5.731875 -1.85625 5.46375 -2.8125 5.1875 C-5.76240366 4.08851629 -7.05615186 3.37581439 -9 1 C-7.88625 1.020625 -6.7725 1.04125 -5.625 1.0625 C-2.16784079 1.26380718 -2.16784079 1.26380718 0 0 Z " fill="#2C7BB0" transform="translate(236,137)"/>
<path d="M0 0 C0.33 0 0.66 0 1 0 C2.08794502 4.38566071 2.12897314 8.65582765 2.09765625 13.14453125 C2.0962413 13.91431808 2.09482635 14.68410492 2.09336853 15.47721863 C2.08779606 17.92235288 2.07524871 20.36739368 2.0625 22.8125 C2.05748144 24.47591013 2.05291915 26.1393217 2.04882812 27.80273438 C2.03868892 31.86855407 2.01910832 35.93417311 2 40 C-2.95 40 -7.9 40 -13 40 C-13.33 39.34 -13.66 38.68 -14 38 C-9.38 38 -4.76 38 0 38 C-0.08378906 36.01097656 -0.16757812 34.02195313 -0.25390625 31.97265625 C-0.33048023 30.01653905 -0.40700381 28.06041955 -0.48217773 26.10424805 C-0.5609259 24.10251279 -0.6466034 22.10105398 -0.73242188 20.09960938 C-0.99072912 13.2630776 -1.00353087 6.77197496 0 0 Z " fill="#4599C0" transform="translate(443,117)"/>
<path d="M0 0 C0.33 0.99 0.66 1.98 1 3 C-3.26735718 10.89461079 -9.42613866 20.95075911 -17 26 C-17.99 25.01 -18.98 24.02 -20 23 C-19.29037109 22.34257812 -19.29037109 22.34257812 -18.56640625 21.671875 C-13.41673017 16.73300438 -9.15034107 11.40073694 -4.98046875 5.63671875 C-3.41642033 3.55440576 -1.9046216 1.76042312 0 0 Z " fill="#4091B8" transform="translate(291,132)"/>
<path d="M0 0 C0.66 0.33 1.32 0.66 2 1 C0.89789095 2.75129657 -0.20677432 4.50098464 -1.3125 6.25 C-1.92738281 7.22453125 -2.54226562 8.1990625 -3.17578125 9.203125 C-5 12 -5 12 -6.7109375 14.1640625 C-8.57677057 16.82146112 -8.34350575 18.83974713 -8 22 C-7.34 22.66 -6.68 23.32 -6 24 C-8 24 -10 24 -12 24 C-13.68798827 25.43750191 -13.68798827 25.43750191 -15 27 C-14.14179976 14.98519667 -8.12306565 8.43310633 0 0 Z " fill="#2D72A6" transform="translate(258,143)"/>
<path d="M0 0 C0 18.81 0 37.62 0 57 C7.92 56.505 7.92 56.505 16 56 C16 56.99 16 57.98 16 59 C10.39 59 4.78 59 -1 59 C-1 40.19 -1 21.38 -1 2 C-1.66 1.67 -2.32 1.34 -3 1 C-1 0 -1 0 0 0 Z " fill="#4899C6" transform="translate(369,98)"/>
<path d="M0 0 C0.33 0.99 0.66 1.98 1 3 C1.598125 2.649375 2.19625 2.29875 2.8125 1.9375 C5 1 5 1 8 2 C0.94599803 6.99355466 -5.78053781 11.23593307 -14 14 C-14.33 13.34 -14.66 12.68 -15 12 C-13.68 11.67 -12.36 11.34 -11 11 C-10.67 9.35 -10.34 7.7 -10 6 C-9.01 6.33 -8.02 6.66 -7 7 C-7 6.34 -7 5.68 -7 5 C-6.01 5 -5.02 5 -4 5 C-3.67 4.01 -3.34 3.02 -3 2 C-2.01 1.34 -1.02 0.68 0 0 Z " fill="#2D88BF" transform="translate(259,132)"/>
<path d="M0 0 C2 2 2 2 2.125 4.625 C2.08375 5.40875 2.0425 6.1925 2 7 C1.773125 6.360625 1.54625 5.72125 1.3125 5.0625 C0.14749104 2.72806339 0.14749104 2.72806339 -2.625 2.25 C-3.40875 2.1675 -4.1925 2.085 -5 2 C-5.66 3.32 -6.32 4.64 -7 6 C-7.66 6 -8.32 6 -9 6 C-9 6.66 -9 7.32 -9 8 C-10.57914015 8.53341184 -12.16354387 9.05125763 -13.75 9.5625 C-14.63171875 9.85253906 -15.5134375 10.14257812 -16.421875 10.44140625 C-19.07834316 11.01697435 -20.47031106 10.89248371 -23 10 C-22.67 9.34 -22.34 8.68 -22 8 C-20.63875 7.8453125 -20.63875 7.8453125 -19.25 7.6875 C-15.13966042 6.81800509 -13.81141325 5.03336693 -11 2 C-7.4795614 -0.46430702 -4.21405639 -0.31215232 0 0 Z " fill="#48BBE8" transform="translate(321,71)"/>
<path d="M0 0 C0.66 0.33 1.32 0.66 2 1 C1.175 1.70125 0.35 2.4025 -0.5 3.125 C-3.46074997 6.52986246 -3.19233012 7.67257231 -3 12 C-6 14 -6 14 -9 14 C-9.2475 14.804375 -9.495 15.60875 -9.75 16.4375 C-11 19 -11 19 -12.875 20 C-15.74470549 20 -16.90463451 18.87086204 -19 17 C-18.236875 16.938125 -17.47375 16.87625 -16.6875 16.8125 C-13.83377168 16.27821371 -13.83377168 16.27821371 -12.6875 13.8125 C-10.66743064 10.44571774 -8.11288955 7.893941 -5.3125 5.1875 C-4.80138672 4.68541016 -4.29027344 4.18332031 -3.76367188 3.66601562 C-2.51365638 2.43936491 -1.2574532 1.21902509 0 0 Z " fill="#388BBC" transform="translate(259,114)"/>
<path d="M0 0 C0.66 0.33 1.32 0.66 2 1 C1.34 1.66 0.68 2.32 0 3 C-0.40047444 5.32275177 -0.7397104 7.65739357 -1 10 C0.65 10 2.3 10 4 10 C4 10.99 4 11.98 4 13 C3.34 13 2.68 13 2 13 C2.33 14.32 2.66 15.64 3 17 C4.32 17.33 5.64 17.66 7 18 C7.33 17.34 7.66 16.68 8 16 C8.66 16 9.32 16 10 16 C10.433125 17.175625 10.433125 17.175625 10.875 18.375 C11.84912254 21.09671632 11.84912254 21.09671632 14 23 C7.53684 22.4829472 3.51341189 20.76475308 -0.875 15.9375 C-2.60284546 11.42590353 -2.59223828 6.77636331 -2 2 C-1.34 1.34 -0.68 0.68 0 0 Z " fill="#3BA0CE" transform="translate(452,113)"/>
<path d="M0 0 C0.804375 0.185625 1.60875 0.37125 2.4375 0.5625 C3.283125 0.706875 4.12875 0.85125 5 1 C5.33 0.67 5.66 0.34 6 0 C8.67058851 -0.14115161 11.32432238 -0.04247107 14 0 C14.33 0.66 14.66 1.32 15 2 C12.69 2 10.38 2 8 2 C8 3.32 8 4.64 8 6 C7.34 6 6.68 6 6 6 C6 6.66 6 7.32 6 8 C3.69 7.67 1.38 7.34 -1 7 C-1.625 5.1875 -1.625 5.1875 -2 3 C-1.34 2.01 -0.68 1.02 0 0 Z " fill="#287EB8" transform="translate(246,166)"/>
<path d="M0 0 C0.66 0 1.32 0 2 0 C2.95024979 3.69541586 2.95024979 6.30458414 2 10 C-1.14930893 11.04976964 -3.38814456 11.10131595 -6.6875 11.0625 C-7.68136719 11.05347656 -8.67523437 11.04445312 -9.69921875 11.03515625 C-10.83810547 11.01775391 -10.83810547 11.01775391 -12 11 C-9.7279291 7.74680757 -8.78232302 6.94558076 -5 6 C-3.96854629 4.69084721 -2.96457834 3.35917857 -2 2 C-1.34 2 -0.68 2 0 2 C0 1.34 0 0.68 0 0 Z " fill="#E77942" transform="translate(651,145)"/>
<path d="M0 0 C1.16595703 0.33064453 1.16595703 0.33064453 2.35546875 0.66796875 C3.54076172 0.98701172 3.54076172 0.98701172 4.75 1.3125 C5.34167969 1.49167969 5.93335938 1.67085937 6.54296875 1.85546875 C2.75127641 5.64716109 -2.24396918 5.99436263 -7.39453125 6.10546875 C-12.01638247 6.02053427 -16.03414658 5.1659531 -20.45703125 3.85546875 C-20.45703125 3.52546875 -20.45703125 3.19546875 -20.45703125 2.85546875 C-19.57660156 2.89027344 -18.69617188 2.92507812 -17.7890625 2.9609375 C-16.04689453 3.00154297 -16.04689453 3.00154297 -14.26953125 3.04296875 C-12.54669922 3.09517578 -12.54669922 3.09517578 -10.7890625 3.1484375 C-6.57301521 2.77774167 -4.0934976 -0.24079398 0 0 Z " fill="#E99352" transform="translate(721.45703125,152.14453125)"/>
<path d="M0 0 C0.66 0.33 1.32 0.66 2 1 C1.34 1.66 0.68 2.32 0 3 C0.33 3.66 0.66 4.32 1 5 C0.01 6.485 0.01 6.485 -1 8 C-1.99 8 -2.98 8 -4 8 C-4.2165625 8.928125 -4.2165625 8.928125 -4.4375 9.875 C-5 12 -5 12 -6 14 C-5.01 14.66 -4.02 15.32 -3 16 C-3.99 16.33 -4.98 16.66 -6 17 C-6 17.99 -6 18.98 -6 20 C-5.34 20.33 -4.68 20.66 -4 21 C-3.375 23.5625 -3.375 23.5625 -3 26 C-6.74314466 22.76728416 -7.8249219 19.54652326 -8.375 14.6875 C-7.81294167 9.16059308 -5.93839291 4.72301592 -1.75 1 C-1.1725 0.67 -0.595 0.34 0 0 Z " fill="#3CA5CD" transform="translate(406,127)"/>
<path d="M0 0 C0.66 0 1.32 0 2 0 C2.02684679 2.64590014 2.04676357 5.29153096 2.0625 7.9375 C2.07087891 8.69224609 2.07925781 9.44699219 2.08789062 10.22460938 C2.09652441 12.14994313 2.05224333 14.07535581 2 16 C1 17 1 17 -2.59765625 17.09765625 C-4.08596867 17.0909822 -5.57426432 17.07902183 -7.0625 17.0625 C-7.82111328 17.05798828 -8.57972656 17.05347656 -9.36132812 17.04882812 C-11.24091871 17.0370068 -13.12046899 17.01907078 -15 17 C-15 16.34 -15 15.68 -15 15 C-14.07316406 14.93941406 -13.14632812 14.87882813 -12.19140625 14.81640625 C-10.99386719 14.73261719 -9.79632812 14.64882812 -8.5625 14.5625 C-6.77005859 14.44068359 -6.77005859 14.44068359 -4.94140625 14.31640625 C-2.11429756 14.32343886 -2.11429756 14.32343886 -1 13 C-0.76518307 10.81707226 -0.58636677 8.62796826 -0.4375 6.4375 C-0.35371094 5.23996094 -0.26992188 4.04242188 -0.18359375 2.80859375 C-0.12300781 1.88175781 -0.06242188 0.95492187 0 0 Z " fill="#CB6A51" transform="translate(594,140)"/>
<path d="M0 0 C1.875 0.1875 1.875 0.1875 4 1 C5.98819397 4.66246257 6.29469518 7.76817109 7 12 C13.27 12 19.54 12 26 12 C26 12.66 26 13.32 26 14 C8.24063748 15.79730279 8.24063748 15.79730279 3.078125 11.65625 C1.24052233 8.7707582 -0.10636437 6.30215091 -1 3 C-0.67 2.01 -0.34 1.02 0 0 Z " fill="#459CCA" transform="translate(521,143)"/>
<path d="M0 0 C0.66 0 1.32 0 2 0 C2.185625 0.94875 2.37125 1.8975 2.5625 2.875 C3.036875 3.90625 3.51125 4.9375 4 6 C7.46705538 7.24061217 7.46705538 7.24061217 11 8 C11.99 9.485 11.99 9.485 13 11 C8.71 11 4.42 11 0 11 C0 7.37 0 3.74 0 0 Z " fill="#E66249" transform="translate(578,144)"/>
<path d="M0 0 C1.65 0.33 3.3 0.66 5 1 C5.08086147 2.79093191 5.13912702 4.58289628 5.1875 6.375 C5.22230469 7.37273437 5.25710938 8.37046875 5.29296875 9.3984375 C5.19628906 10.25695312 5.09960938 11.11546875 5 12 C4.01 12.66 3.02 13.32 2 14 C1.01 13.67 0.02 13.34 -1 13 C-0.67 12.01 -0.34 11.02 0 10 C0.06802967 8.27204648 0.08495645 6.54164635 0.0625 4.8125 C0.05347656 3.91144531 0.04445313 3.01039063 0.03515625 2.08203125 C0.02355469 1.39496094 0.01195312 0.70789063 0 0 Z " fill="#EA9D55" transform="translate(775,143)"/>
<path d="M0 0 C1.81242052 -0.02687279 3.62495233 -0.04633715 5.4375 -0.0625 C6.44683594 -0.07410156 7.45617187 -0.08570312 8.49609375 -0.09765625 C11 0 11 0 12 1 C12.14355117 5.00220653 12.04216403 8.99441683 12 13 C8.04 13 4.08 13 0 13 C0 12.67 0 12.34 0 12 C3.3 11.67 6.6 11.34 10 11 C9.814375 9.906875 9.62875 8.81375 9.4375 7.6875 C9 4 9 4 10 1 C6.7 1 3.4 1 0 1 C0 0.67 0 0.34 0 0 Z " fill="#E09C5F" transform="translate(768,104)"/>
<path d="M0 0 C-2.45765035 7.91909556 -5.66818573 15.41985296 -9 23 C-10.1700097 19.08263419 -9.69584017 16.02040985 -9 12 C-8.01 12 -7.02 12 -6 12 C-6 10.35 -6 8.7 -6 7 C-5.34 7 -4.68 7 -4 7 C-4.3403125 6.1028125 -4.3403125 6.1028125 -4.6875 5.1875 C-4.790625 4.465625 -4.89375 3.74375 -5 3 C-3.38441968 0.84589291 -2.74502455 0 0 0 Z " fill="#489CBF" transform="translate(293,110)"/>
<path d="M0 0 C-0.33 0.99 -0.66 1.98 -1 3 C-1.33 2.34 -1.66 1.68 -2 1 C-4.59126483 1.14764183 -7.16486797 1.34110894 -9.75 1.5625 C-10.84441406 1.61760742 -10.84441406 1.61760742 -11.9609375 1.67382812 C-16.21007219 2.04946185 -16.21007219 2.04946185 -19.40820312 4.65185547 C-20.67469165 6.78694025 -20.67469165 6.78694025 -22 10 C-22.99 9.67 -23.98 9.34 -25 9 C-21.00042832 -3.2168735 -10.6986412 -0.85800984 0 0 Z " fill="#4C9DC1" transform="translate(545,105)"/>
<path d="M0 0 C3.26954202 0.56371414 4.82575883 1.49962266 7 4 C1.17521449 7.03901852 -3.48208608 7.3540919 -10 7 C-6.93882432 4.37613513 -6.26826873 4 -2 4 C-1.34 2.68 -0.68 1.36 0 0 Z " fill="#E1784F" transform="translate(613,126)"/>
<path d="M0 0 C16.8929385 -0.738041 16.8929385 -0.738041 24 4 C21.60095141 5.1995243 19.67479327 5.73904456 17 6 C16.40058594 5.30197266 16.40058594 5.30197266 15.7890625 4.58984375 C13.07382156 2.17695496 10.36564334 2.23626939 6.8125 1.8125 C5.54019531 1.65394531 4.26789063 1.49539062 2.95703125 1.33203125 C1.98121094 1.22246094 1.00539063 1.11289063 0 1 C0 0.67 0 0.34 0 0 Z " fill="#439EC8" transform="translate(414,105)"/>
<path d="M0 0 C2.31 0 4.62 0 7 0 C7 0.33 7 0.66 7 1 C5.35 1 3.7 1 2 1 C2 2.65 2 4.3 2 6 C2.66 6 3.32 6 4 6 C4.33 8.31 4.66 10.62 5 13 C3.35 13 1.7 13 0 13 C0 8.71 0 4.42 0 0 Z " fill="#E2934F" transform="translate(743,104)"/>
<path d="M0 0 C4.75 0.875 4.75 0.875 7 2 C7 2.99 7 3.98 7 5 C8.32 5.66 9.64 6.32 11 7 C8.35261084 8.4606285 7.10551666 9 4 9 C4 8.34 4 7.68 4 7 C3.525625 6.54625 3.05125 6.0925 2.5625 5.625 C0.77906263 3.77022513 0.4308007 2.49864408 0 0 Z " fill="#EC8B4C" transform="translate(614,86)"/>
<path d="M0 0 C0.33 0.66 0.66 1.32 1 2 C1.99 2 2.98 2 4 2 C2.95724749 5.2441189 1.38759509 6.60194664 -1.4375 8.3125 C-5 10 -5 10 -8 9 C-7.34 9 -6.68 9 -6 9 C-6 7.68 -6 6.36 -6 5 C-4.02 4.67 -2.04 4.34 0 4 C-1.32 3.34 -2.64 2.68 -4 2 C-2.68 1.34 -1.36 0.68 0 0 Z " fill="#347EAC" transform="translate(260,163)"/>
<path d="M0 0 C0 0.66 0 1.32 0 2 C0.66 2.33 1.32 2.66 2 3 C3.53712084 5.34613181 4.09239476 6.44563145 3.625 9.25 C3.315625 10.11625 3.315625 10.11625 3 11 C2.608125 10.21625 2.21625 9.4325 1.8125 8.625 C-0.35862607 5.48061053 -1.33660685 4.95566778 -5 4 C-7.99354616 3.56731938 -10.98597922 3.24952677 -14 3 C-14 2.67 -14 2.34 -14 2 C-12.4176994 1.66179834 -10.83410625 1.32964061 -9.25 1 C-8.36828125 0.814375 -7.4865625 0.62875 -6.578125 0.4375 C-4 0 -4 0 0 0 Z " fill="#E18453" transform="translate(610,95)"/>
<path d="M0 0 C0.33 0 0.66 0 1 0 C2.7108173 7.91253 2.41031837 16.06695918 1 24 C0.67 24 0.34 24 0 24 C-0.12036664 18.22240116 0.1679418 12.72040011 1 7 C-0.65 6.67 -2.3 6.34 -4 6 C-2.84826645 3.53199953 -1.95216435 1.95216435 0 0 Z " fill="#E19F5D" transform="translate(739,119)"/>
<path d="M0 0 C0 3 0 3 -2.5 6 C-5.89945501 9.21505061 -9.39948137 11.08719869 -14 12 C-17.5 11.6875 -17.5 11.6875 -20 11 C-16.98609691 8.99073127 -15.16275838 8.49984828 -11.6875 7.75 C-6.13875682 6.32969836 -3.60501922 4.38448283 0 0 Z " fill="#4B9FC2" transform="translate(283,88)"/>
<path d="M0 0 C2.97 0.495 2.97 0.495 6 1 C5.83242188 1.55429688 5.66484375 2.10859375 5.4921875 2.6796875 C5.28851562 3.40414062 5.08484375 4.12859375 4.875 4.875 C4.66617188 5.59429687 4.45734375 6.31359375 4.2421875 7.0546875 C4.12230469 8.01761719 4.12230469 8.01761719 4 9 C4.66 9.66 5.32 10.32 6 11 C5.67 11.99 5.34 12.98 5 14 C3.99126984 12.73608512 2.99328178 11.46359117 2 10.1875 C1.443125 9.47980469 0.88625 8.77210938 0.3125 8.04296875 C-1 6 -1 6 -1 3 C-0.01 3 0.98 3 2 3 C2 2.34 2 1.68 2 1 C1.34 0.67 0.68 0.34 0 0 Z " fill="#3DA2D1" transform="translate(514,130)"/>
<path d="M0 0 C0.99 0 1.98 0 3 0 C3 0.66 3 1.32 3 2 C5.97 2.495 5.97 2.495 9 3 C8.34 4.32 7.68 5.64 7 7 C6.67 6.67 6.34 6.34 6 6 C3.81707226 5.76518307 1.62796826 5.58636677 -0.5625 5.4375 C-1.76003906 5.35371094 -2.95757812 5.26992187 -4.19140625 5.18359375 C-5.11824219 5.12300781 -6.04507812 5.06242187 -7 5 C-6.67 4.34 -6.34 3.68 -6 3 C-4.02 3 -2.04 3 0 3 C0 2.01 0 1.02 0 0 Z " fill="#42A0CA" transform="translate(420,112)"/>
<path d="M0 0 C0.33 0 0.66 0 1 0 C0.51330798 7.54372624 0.51330798 7.54372624 -1.6875 9.5 C-4.56905656 10.12303926 -7.06108204 10.25555808 -10 10 C-10.66 9.34 -11.32 8.68 -12 8 C-9.36 7.67 -6.72 7.34 -4 7 C-4 5.35 -4 3.7 -4 2 C-2.68 2.33 -1.36 2.66 0 3 C0 2.01 0 1.02 0 0 Z " fill="#E2834A" transform="translate(652,87)"/>
<path d="M0 0 C0.33 0.66 0.66 1.32 1 2 C-9.395 2.495 -9.395 2.495 -20 3 C-20.66 4.65 -21.32 6.3 -22 8 C-23.32 7.67 -24.64 7.34 -26 7 C-22.5160087 1.37488343 -22.5160087 1.37488343 -18.61865234 0.41113281 C-15.79589325 0.18555705 -13.01914933 0.11739315 -10.1875 0.125 C-9.20845703 0.104375 -8.22941406 0.08375 -7.22070312 0.0625 C-4.81294934 0.01551944 -2.4081172 -0.004453 0 0 Z " fill="#3E7BA3" transform="translate(245,128)"/>
<path d="M0 0 C-0.99 1.485 -0.99 1.485 -2 3 C-2.66 3 -3.32 3 -4 3 C-4.33 3.99 -4.66 4.98 -5 6 C-5.66 6 -6.32 6 -7 6 C-7.33 6.66 -7.66 7.32 -8 8 C-8 7.01 -8 6.02 -8 5 C-8.99 5 -9.98 5 -11 5 C-11 3 -11 3 -9.4375 1.375 C-6.19319567 -0.45512039 -3.66275561 -0.21131282 0 0 Z " fill="#3FACDB" transform="translate(305,97)"/>
<path d="M0 0 C0.66 0.33 1.32 0.66 2 1 C0.90902202 2.84121215 -0.19819251 4.67281256 -1.3125 6.5 C-2.23482422 8.03140625 -2.23482422 8.03140625 -3.17578125 9.59375 C-3.77777344 10.3878125 -4.37976563 11.181875 -5 12 C-5.99 12 -6.98 12 -8 12 C-8 8.03869629 -6.65122875 7.17085599 -4 4.3125 C-3.2575 3.50425781 -2.515 2.69601563 -1.75 1.86328125 C-1.1725 1.24839844 -0.595 0.63351563 0 0 Z " fill="#427DA6" transform="translate(258,143)"/>
<path d="M0 0 C0 3 0 3 -1.75 4.82421875 C-2.4925 5.43910156 -3.235 6.05398437 -4 6.6875 C-4.7425 7.31011719 -5.485 7.93273437 -6.25 8.57421875 C-6.8275 9.04472656 -7.405 9.51523438 -8 10 C-8.66 9.34 -9.32 8.68 -10 8 C-9.625 5.375 -9.625 5.375 -9 3 C-7.88625 2.87625 -6.7725 2.7525 -5.625 2.625 C-1.96896323 2.3534187 -1.96896323 2.3534187 0 0 Z " fill="#3673A4" transform="translate(244,146)"/>
<path d="M0 0 C0 0.66 0 1.32 0 2 C-0.598125 2.268125 -1.19625 2.53625 -1.8125 2.8125 C-3.97224808 3.98493467 -5.35790256 5.19369282 -7 7 C-8.5625 5.75 -8.5625 5.75 -10 4 C-9.6875 1.8125 -9.6875 1.8125 -9 0 C-5.67465243 -1.10844919 -3.37817425 -0.84454356 0 0 Z " fill="#F78C41" transform="translate(764,146)"/>
<path d="M0 0 C5.28 0 10.56 0 16 0 C16 0.66 16 1.32 16 2 C14.68 2 13.36 2 12 2 C12 2.66 12 3.32 12 4 C10.35 4 8.7 4 7 4 C6.67 3.34 6.34 2.68 6 2 C2.97065509 1.34227572 2.97065509 1.34227572 0 1 C0 0.67 0 0.34 0 0 Z " fill="#DF8651" transform="translate(637,104)"/>
<path d="M0 0 C0.33 0 0.66 0 1 0 C0.96519531 0.84304687 0.93039062 1.68609375 0.89453125 2.5546875 C0.86746094 3.65039062 0.84039062 4.74609375 0.8125 5.875 C0.77769531 6.96554688 0.74289062 8.05609375 0.70703125 9.1796875 C0.80371094 10.11039063 0.90039062 11.04109375 1 12 C1.99 12.66 2.98 13.32 4 14 C2.71034824 15.37562854 1.37310707 16.70766393 0 18 C-0.66 18 -1.32 18 -2 18 C-1.85805236 15.93722893 -1.71127784 13.87478969 -1.5625 11.8125 C-1.48128906 10.66394531 -1.40007812 9.51539063 -1.31640625 8.33203125 C-1.04596188 5.48401829 -0.62478253 2.78789518 0 0 Z " fill="#418AAC" transform="translate(269,135)"/>
<path d="M0 0 C1.35158203 0.15275391 1.35158203 0.15275391 2.73046875 0.30859375 C3.41753906 0.39238281 4.10460937 0.47617188 4.8125 0.5625 C4.4825 1.2225 4.1525 1.8825 3.8125 2.5625 C0.25557323 3.41306945 -1.68020578 3.73159807 -5.1875 2.5625 C-7.5281065 2.84019908 -9.86374308 3.16789977 -12.1875 3.5625 C-7.98041724 0.22584815 -5.33051375 -0.62304706 0 0 Z " fill="#3FA0CD" transform="translate(469.1875,105.4375)"/>
<path d="M0 0 C2 2 2 2 2.125 4.625 C2.08375 5.40875 2.0425 6.1925 2 7 C1.773125 6.360625 1.54625 5.72125 1.3125 5.0625 C0.14749104 2.72806339 0.14749104 2.72806339 -2.625 2.25 C-3.40875 2.1675 -4.1925 2.085 -5 2 C-5.33 2.66 -5.66 3.32 -6 4 C-7.65 3.67 -9.3 3.34 -11 3 C-8.91366797 -1.17266406 -4.08942128 -0.22305934 0 0 Z M-9 5 C-7 6 -7 6 -7 6 Z " fill="#51B3D0" transform="translate(321,71)"/>
<path d="M0 0 C0.99 0.33 1.98 0.66 3 1 C3 1.66 3 2.32 3 3 C4.65 2.67 6.3 2.34 8 2 C8 2.66 8 3.32 8 4 C8.99 4.33 9.98 4.66 11 5 C11 5.66 11 6.32 11 7 C8.37428995 7.38613383 6.6156121 7.38493778 4.33203125 5.95703125 C2.6875 4.625 2.6875 4.625 0 2 C0 1.34 0 0.68 0 0 Z " fill="#E09550" transform="translate(754,150)"/>
<path d="M0 0 C2 1.375 2 1.375 4 4 C4.97316833 9.98242426 4.27056252 14.82160934 1 20 C0.34 20 -0.32 20 -1 20 C0.875 13.125 0.875 13.125 2 12 C2.36760731 9.67182036 2.70241581 7.3381615 3 5 C2.34 5 1.68 5 1 5 C0.67 3.35 0.34 1.7 0 0 Z " fill="#489DC4" transform="translate(486,131)"/>
<path d="M0 0 C0.99 0.33 1.98 0.66 3 1 C5.63804589 0.60602665 5.63804589 0.60602665 8 0 C7.01 0.33 6.02 0.66 5 1 C4.773125 1.639375 4.54625 2.27875 4.3125 2.9375 C2.6714195 5.51634079 1.77598772 5.54132286 -1.125 6.25 C-2.40375 6.4975 -3.6825 6.745 -5 7 C-5 6.01 -5 5.02 -5 4 C-4.0409375 3.8453125 -4.0409375 3.8453125 -3.0625 3.6875 C-2.381875 3.460625 -1.70125 3.23375 -1 3 C-0.67 2.01 -0.34 1.02 0 0 Z " fill="#3192C6" transform="translate(265,128)"/>
<path d="M0 0 C0.86882812 -0.00515625 1.73765625 -0.0103125 2.6328125 -0.015625 C4.875 0.25 4.875 0.25 6.875 2.25 C5.61042969 2.28867188 5.61042969 2.28867188 4.3203125 2.328125 C3.22460938 2.38484375 2.12890625 2.4415625 1 2.5 C-0.09054687 2.54640625 -1.18109375 2.5928125 -2.3046875 2.640625 C-5.2582065 2.93846128 -5.2582065 2.93846128 -6.5078125 5.296875 C-6.71148437 5.94140625 -6.91515625 6.5859375 -7.125 7.25 C-7.125 5.93 -7.125 4.61 -7.125 3.25 C-7.785 2.92 -8.445 2.59 -9.125 2.25 C-5.97530499 0.40413223 -3.63615326 -0.02170838 0 0 Z " fill="#4AA3C8" transform="translate(473.125,114.75)"/>
<path d="M0 0 C0.99 0.66 1.98 1.32 3 2 C6.14221967 1.68493373 6.14221967 1.68493373 9 1 C6.59231297 3.79163712 4.23853384 4.89717557 0.8125 6.1875 C-0.08855469 6.53167969 -0.98960937 6.87585938 -1.91796875 7.23046875 C-2.60503906 7.48441406 -3.29210937 7.73835937 -4 8 C-4.33 7.34 -4.66 6.68 -5 6 C-3.68 5.67 -2.36 5.34 -1 5 C-0.67 3.35 -0.34 1.7 0 0 Z " fill="#367FAF" transform="translate(249,138)"/>
<path d="M0 0 C0.66 0 1.32 0 2 0 C1.34 2.64 0.68 5.28 0 8 C-0.66 8 -1.32 8 -2 8 C-2.33 7.34 -2.66 6.68 -3 6 C-4.32 6 -5.64 6 -7 6 C-7 5.01 -7 4.02 -7 3 C-3.98968256 2.06576355 -3.13349732 1.95550089 0 3 C0 2.01 0 1.02 0 0 Z " fill="#3E94C3" transform="translate(281,133)"/>
<path d="M0 0 C1.98 0 3.96 0 6 0 C6 2.64 6 5.28 6 8 C1.125 3.375 1.125 3.375 0 0 Z " fill="#DD8449" transform="translate(690,144)"/>
<path d="M0 0 C0.66 0 1.32 0 2 0 C-0.17632189 4.89672424 -2.88229672 8.98947371 -8 11 C-8.33 10.01 -8.66 9.02 -9 8 C-7.68 8 -6.36 8 -5 8 C-5 6.35 -5 4.7 -5 3 C-4.360625 2.87625 -3.72125 2.7525 -3.0625 2.625 C-2.0415625 2.315625 -2.0415625 2.315625 -1 2 C-0.67 1.34 -0.34 0.68 0 0 Z " fill="#E09553" transform="translate(737,143)"/>
<path d="M0 0 C0.66 0.33 1.32 0.66 2 1 C-1.625 6.875 -1.625 6.875 -5 8 C-5.99 9.485 -5.99 9.485 -7 11 C-7.99 10.67 -8.98 10.34 -10 10 C-6.7 6.7 -3.4 3.4 0 0 Z " fill="#4FA9C4" transform="translate(294,77)"/>
<path d="M0 0 C-5.10703423 4.66928844 -9.61842957 4.35199549 -16.3671875 4.140625 C-17.67042969 4.07101563 -17.67042969 4.07101563 -19 4 C-19 3.67 -19 3.34 -19 3 C-15.37 3 -11.74 3 -8 3 C-8 2.34 -8 1.68 -8 1 C-3.375 -1.125 -3.375 -1.125 0 0 Z " fill="#4E9EC1" transform="translate(427,153)"/>
<path d="M0 0 C0.33 0.99 0.66 1.98 1 3 C0.00390625 4.82421875 0.00390625 4.82421875 -1.4375 6.6875 C-1.91058594 7.31011719 -2.38367188 7.93273437 -2.87109375 8.57421875 C-3.24363281 9.04472656 -3.61617188 9.51523438 -4 10 C-4.99 9.67 -5.98 9.34 -7 9 C-6.21448343 7.68381002 -5.4213763 6.37214772 -4.625 5.0625 C-4.18414062 4.33160156 -3.74328125 3.60070312 -3.2890625 2.84765625 C-2 1 -2 1 0 0 Z " fill="#5897AE" transform="translate(291,132)"/>
<path d="M0 0 C0 1.65 0 3.3 0 5 C-1.98 5.99 -1.98 5.99 -4 7 C-3.67 5.35 -3.34 3.7 -3 2 C-4.32 2.33 -5.64 2.66 -7 3 C-7 2.01 -7 1.02 -7 0 C-4.3333581 -1.33332095 -2.83319697 -0.67102033 0 0 Z " fill="#318EC8" transform="translate(278,138)"/>
<path d="M0 0 C0.33 0 0.66 0 1 0 C1 4.29 1 8.58 1 13 C-0.32 12.67 -1.64 12.34 -3 12 C-2.67 11.34 -2.34 10.68 -2 10 C-1.69208131 7.66922657 -1.49104726 5.33758104 -1.28125 2.99609375 C-1 1 -1 1 0 0 Z " fill="#E1975F" transform="translate(724,128)"/>
<path d="M0 0 C0.66 0 1.32 0 2 0 C2.33 1.32 2.66 2.64 3 4 C0.03 6.475 0.03 6.475 -3 9 C-4.42944945 6.64561267 -5.08661261 5.51967567 -4.625 2.75 C-4.41875 2.1725 -4.2125 1.595 -4 1 C-3.34 1 -2.68 1 -2 1 C-2.33 2.65 -2.66 4.3 -3 6 C-2.01 5.34 -1.02 4.68 0 4 C0 2.68 0 1.36 0 0 Z " fill="#3A8CB7" transform="translate(277,139)"/>
<path d="M0 0 C0.99 0.33 1.98 0.66 3 1 C0.36113346 5.2026393 -2.36440339 8.56638098 -6 12 C-6 10.35 -6 8.7 -6 7 C-4.7934375 6.6596875 -4.7934375 6.6596875 -3.5625 6.3125 C-2.716875 5.879375 -1.87125 5.44625 -1 5 C-0.10613836 2.45224694 -0.10613836 2.45224694 0 0 Z " fill="#4A9DC5" transform="translate(540,108)"/>
<path d="M0 0 C0.33 0.99 0.66 1.98 1 3 C3.01508358 3.73323796 3.01508358 3.73323796 5 4 C4.01 4.33 3.02 4.66 2 5 C2 5.99 2 6.98 2 8 C2.66 8.33 3.32 8.66 4 9 C4.625 11.5625 4.625 11.5625 5 14 C2.25445276 11.62884556 1.04882814 9.46920075 0 6 C-0.125 2.6875 -0.125 2.6875 0 0 Z " fill="#439BC9" transform="translate(398,139)"/>
<path d="M0 0 C0 2.83967231 -0.40267181 5.23735711 -1 8 C-6.75 7.25 -6.75 7.25 -9 5 C-8.071875 4.731875 -7.14375 4.46375 -6.1875 4.1875 C-3.23759634 3.08851629 -1.94384814 2.37581439 0 0 Z " fill="#2C87C1" transform="translate(249,126)"/>
<path d="M0 0 C0.61875 0.33 1.2375 0.66 1.875 1 C3.91018344 2.14193235 3.91018344 2.14193235 6 2 C5.67 3.32 5.34 4.64 5 6 C3.02 6.33 1.04 6.66 -1 7 C-0.67 4.69 -0.34 2.38 0 0 Z " fill="#297FBB" transform="translate(237,143)"/>
<path d="M0 0 C2.125 0.375 2.125 0.375 4 1 C2.1875 3.5 2.1875 3.5 0 6 C-0.99 6 -1.98 6 -3 6 C-2.42655063 3.13275314 -2.1385485 2.1385485 0 0 Z " fill="#469BBF" transform="translate(283,142)"/>
<path d="M0 0 C1.32 1.32 2.64 2.64 4 4 C3.67 4.66 3.34 5.32 3 6 C1.35 6 -0.3 6 -2 6 C-2.33 4.68 -2.66 3.36 -3 2 C-2.34 2 -1.68 2 -1 2 C-0.67 1.34 -0.34 0.68 0 0 Z " fill="#3EA2D5" transform="translate(533,137)"/>
<path d="M0 0 C0.66 0 1.32 0 2 0 C2 2.31 2 4.62 2 7 C0.02 7.66 -1.96 8.32 -4 9 C-3.2884375 7.88625 -3.2884375 7.88625 -2.5625 6.75 C-1.22130673 4.38949985 -0.487688 2.63351523 0 0 Z " fill="#D68250" transform="translate(613,110)"/>
<path d="M0 0 C1.32 0 2.64 0 4 0 C3.8125 1.875 3.8125 1.875 3 4 C0.4375 5.25 0.4375 5.25 -2 6 C-1.125 1.125 -1.125 1.125 0 0 Z " fill="#32A6DC" transform="translate(482,108)"/>
<path d="M0 0 C1.32 0.33 2.64 0.66 4 1 C3.67 1.99 3.34 2.98 3 4 C3.66 4.33 4.32 4.66 5 5 C3.02 5 1.04 5 -1 5 C-1.33 4.34 -1.66 3.68 -2 3 C-1.34 2.01 -0.68 1.02 0 0 Z " fill="#247DBA" transform="translate(246,166)"/>
<path d="M0 0 C3.39417765 3.12621626 5.6062718 5.56541027 7 10 C4.0625 8.9375 4.0625 8.9375 1 7 C0.125 3.3125 0.125 3.3125 0 0 Z " fill="#43A1CA" transform="translate(537,143)"/>
<path d="M0 0 C-1.12073862 0.83905565 -2.24674547 1.67107831 -3.375 2.5 C-4.00148438 2.9640625 -4.62796875 3.428125 -5.2734375 3.90625 C-7 5 -7 5 -9 5 C-8.67 3.35 -8.34 1.7 -8 0 C-4.71303767 -0.79953138 -3.28976808 -1.09658936 0 0 Z " fill="#3B88B5" transform="translate(267,134)"/>
<path d="M0 0 C2.625 0.9375 2.625 0.9375 5 2 C2.4345406 4.5654594 0.52313332 4.54046087 -3 5 C-2.625 3.0625 -2.625 3.0625 -2 1 C-1.34 0.67 -0.68 0.34 0 0 Z " fill="#EC8A2F" transform="translate(690,117)"/>
<path d="M0 0 C0.99 0.33 1.98 0.66 3 1 C2.0919838 2.13199353 1.17316174 3.25532363 0.25 4.375 C-0.26046875 5.00148438 -0.7709375 5.62796875 -1.296875 6.2734375 C-3.08199481 8.08312318 -4.67949644 9.00117455 -7 10 C-7 9.34 -7 8.68 -7 8 C-6.030625 7.195625 -5.06125 6.39125 -4.0625 5.5625 C-0.80624673 3.29315623 -0.80624673 3.29315623 0 0 Z " fill="#4FA7C7" transform="translate(305,95)"/>
<path d="M0 0 C0.99 0.66 1.98 1.32 3 2 C1.35 3.65 -0.3 5.3 -2 7 C-2.99 5.68 -3.98 4.36 -5 3 C-3.35 2.01 -1.7 1.02 0 0 Z " fill="#64B1CB" transform="translate(303,72)"/>
<path d="M0 0 C0 0.66 0 1.32 0 2 C-0.66 2 -1.32 2 -2 2 C-2.99 3.485 -2.99 3.485 -4 5 C-5.65 3.35 -7.3 1.7 -9 0 C-5.67465243 -1.10844919 -3.37817425 -0.84454356 0 0 Z " fill="#3B9FD2" transform="translate(478,137)"/>
<path d="M0 0 C0.66 0 1.32 0 2 0 C2 1.65 2 3.3 2 5 C1.01 4.67 0.02 4.34 -1 4 C-0.67 2.68 -0.34 1.36 0 0 Z M-3 4 C-2.34 4 -1.68 4 -1 4 C-1.33 4.99 -1.66 5.98 -2 7 C-4.0625 7.6875 -4.0625 7.6875 -6 8 C-4.625 6 -4.625 6 -3 4 Z " fill="#3492C6" transform="translate(261,113)"/>
<path d="M0 0 C-0.33 2.31 -0.66 4.62 -1 7 C-2.32 5.68 -3.64 4.36 -5 3 C-2.25 0 -2.25 0 0 0 Z " fill="#E57F4B" transform="translate(631,112)"/>
<path d="M0 0 C0.33 0.99 0.66 1.98 1 3 C2.65 3.33 4.3 3.66 6 4 C6 4.33 6 4.66 6 5 C3.36 5 0.72 5 -2 5 C-2 2 -2 2 0 0 Z " fill="#4E8DAE" transform="translate(242,108)"/>
<path d="M0 0 C1.98567708 0.09765625 3.97135417 0.1953125 5.95703125 0.29296875 C5.62703125 1.28296875 5.29703125 2.27296875 4.95703125 3.29296875 C1.65703125 3.29296875 -1.64296875 3.29296875 -5.04296875 3.29296875 C-2.04296875 0.29296875 -2.04296875 0.29296875 0 0 Z " fill="#D37751" transform="translate(608.04296875,129.70703125)"/>
<path d="M0 0 C0.66 0.33 1.32 0.66 2 1 C0.9375 2.9375 0.9375 2.9375 -1 5 C-4.6875 5.75 -4.6875 5.75 -8 6 C-8 5.01 -8 4.02 -8 3 C-6.576875 2.814375 -6.576875 2.814375 -5.125 2.625 C-1.91332809 2.28312823 -1.91332809 2.28312823 0 0 Z " fill="#58B7DA" transform="translate(307,76)"/>
<path d="M0 0 C1.65 0.33 3.3 0.66 5 1 C4.34 2.32 3.68 3.64 3 5 C2.34 5 1.68 5 1 5 C1 4.01 1 3.02 1 2 C-0.98 2.99 -0.98 2.99 -3 4 C-2.01 2.68 -1.02 1.36 0 0 Z " fill="#3B86B1" transform="translate(269,156)"/>
<path d="M0 0 C2.99324263 1.0975223 3.84610901 1.67682892 5.25 4.625 C5.4975 5.40875 5.745 6.1925 6 7 C3.69 6.01 1.38 5.02 -1 4 C-0.67 2.68 -0.34 1.36 0 0 Z " fill="#43A2CA" transform="translate(527,130)"/>
<path d="M0 0 C2.475 0.495 2.475 0.495 5 1 C5.33 2.32 5.66 3.64 6 5 C5.01 5.495 5.01 5.495 4 6 C3.01 5.67 2.02 5.34 1 5 C0.67 3.35 0.34 1.7 0 0 Z " fill="#EC9B55" transform="translate(722,122)"/>
<path d="M0 0 C2.625 -0.1875 2.625 -0.1875 5 0 C5.33 0.99 5.66 1.98 6 3 C3.36 3 0.72 3 -2 3 C-1.34 2.01 -0.68 1.02 0 0 Z " fill="#E29A50" transform="translate(712,114)"/>
<path d="M0 0 C4.97306516 0.49730652 8.63799813 1.55302334 13 4 C11 5 11 5 8.3984375 4.22265625 C6.90183594 3.64837891 6.90183594 3.64837891 5.375 3.0625 C4.37210938 2.68222656 3.36921875 2.30195312 2.3359375 1.91015625 C1.56507813 1.60980469 0.79421875 1.30945313 0 1 C0 0.67 0 0.34 0 0 Z " fill="#E69D5B" transform="translate(717,104)"/>
<path d="M0 0 C1.65 0.33 3.3 0.66 5 1 C3.625 2.5 3.625 2.5 2 4 C1.34 4 0.68 4 0 4 C-0.33 4.66 -0.66 5.32 -1 6 C-1 2 -1 2 0 0 Z " fill="#4AB3E2" transform="translate(296,76)"/>
<path d="M0 0 C2.75 0.25 2.75 0.25 5 1 C2.64031256 3.09749995 1.45383006 3.96905704 -1.75 4.1875 C-2.86375 4.0946875 -2.86375 4.0946875 -4 4 C-2.3125 1.9375 -2.3125 1.9375 0 0 Z " fill="#41A3D4" transform="translate(478,152)"/>
<path d="M0 0 C2.31 0.33 4.62 0.66 7 1 C7.33 1.99 7.66 2.98 8 4 C5.69 3.67 3.38 3.34 1 3 C0.67 2.01 0.34 1.02 0 0 Z " fill="#2F76A2" transform="translate(244,170)"/>
<path d="M0 0 C1.98 0 3.96 0 6 0 C6 0.99 6 1.98 6 3 C4.02 3 2.04 3 0 3 C0 2.01 0 1.02 0 0 Z " fill="#2CA2E0" transform="translate(497,152)"/>
<path d="M0 0 C0.66 0.33 1.32 0.66 2 1 C0.7260411 3.03833424 -0.61061923 5.03852126 -2 7 C-2.66 7 -3.32 7 -4 7 C-3.43628586 3.73045798 -2.50037734 2.17424117 0 0 Z " fill="#5080AE" transform="translate(258,143)"/>
<path d="M0 0 C1.32 1.65 2.64 3.3 4 5 C1.625 5.625 1.625 5.625 -1 6 C-1.66 5.34 -2.32 4.68 -3 4 C-2.01 2.68 -1.02 1.36 0 0 Z " fill="#E96C3A" transform="translate(599,128)"/>
<path d="M0 0 C0.66 0 1.32 0 2 0 C2 0.99 2 1.98 2 3 C4.31 3 6.62 3 9 3 C9 3.33 9 3.66 9 4 C5.37 4 1.74 4 -2 4 C-1.34 2.68 -0.68 1.36 0 0 Z " fill="#4698C9" transform="translate(390,96)"/>
<path d="M0 0 C1.23556641 0.01740234 1.23556641 0.01740234 2.49609375 0.03515625 C3.32238281 0.04417969 4.14867187 0.05320312 5 0.0625 C5.63808594 0.07410156 6.27617188 0.08570312 6.93359375 0.09765625 C6.93359375 0.42765625 6.93359375 0.75765625 6.93359375 1.09765625 C5.35578125 1.25234375 5.35578125 1.25234375 3.74609375 1.41015625 C0.05928621 2.0749904 -2.03279224 2.98331921 -5.06640625 5.09765625 C-2.6606399 0.12573913 -2.6606399 0.12573913 0 0 Z " fill="#EE823E" transform="translate(642.06640625,80.90234375)"/>
<path d="M0 0 C0.66 0.66 1.32 1.32 2 2 C1.34 2 0.68 2 0 2 C-0.33 3.32 -0.66 4.64 -1 6 C-1.33 5.34 -1.66 4.68 -2 4 C-3.65 4.33 -5.3 4.66 -7 5 C-5.60683123 2.21366246 -3.84019484 2.06507306 -1 1 C-0.67 0.67 -0.34 0.34 0 0 Z " fill="#2E82B3" transform="translate(270,157)"/>
<path d="M0 0 C1.98 0 3.96 0 6 0 C6.33 1.32 6.66 2.64 7 4 C4.08482708 2.92598892 2.22189824 2.22189824 0 0 Z " fill="#3477A7" transform="translate(227,138)"/>
<path d="M0 0 C1.98 0 3.96 0 6 0 C5.34 1.32 4.68 2.64 4 4 C1.525 3.01 1.525 3.01 -1 2 C-0.67 1.34 -0.34 0.68 0 0 Z " fill="#38A9D8" transform="translate(289,105)"/>
<path d="M0 0 C1.65 0 3.3 0 5 0 C5 0.99 5 1.98 5 3 C3.35 3.33 1.7 3.66 0 4 C0 2.68 0 1.36 0 0 Z " fill="#EC8343" transform="translate(611,96)"/>
</svg>
